# xmcd
#
# Track frame offsets:
#	182
#	15927
#	30055
#	49027
#	63732
#	80510
#	92452
#	106697
#	118457
#	147097
#	159370
#	175195
#	189697
#
# Disc length: 2733 seconds
#
# Revision: 2
# Processed by: cddbd v1.4PL0 Copyright (c) Steve Scherf et al.
# Submitted via: EZCDDA 4.3.2
#
DISCID=990aab0d
DTITLE=MERMELADA  - 9 BAJO 0 (EN DIRECTO)
DYEAR=1900
DGENRE=
TTITLE0=AL CORAZÓN
TTITLE1=TRISTE
TTITLE2=EN EL CORAZÓN DE LA CIUDAD
TTITLE3=PIERDES EL TIEMPO
TTITLE4=MARY MARY
TTITLE5=ES MEJOR ASÍ
TTITLE6=AL CARNAVAL
TTITLE7=ALGO DE TI
TTITLE8=EN LA NOCHE
TTITLE9=CRISTINA (NO ROMPAS MI VIDA)
TTITLE10=BUENOS TIEMPOS
TTITLE11=DIDI-WA-DIDI
TTITLE12=VUELVO A LAS CALLES
EXTD=
EXTT0=
EXTT1=
EXTT2=
EXTT3=
EXTT4=
EXTT5=
EXTT6=
EXTT7=
EXTT8=
EXTT9=
EXTT10=
EXTT11=
EXTT12=
PLAYORDER=
